<svg xmlns="http://www.w3.org/2000/svg" xmlns:xlink="http://www.w3.org/1999/xlink" width="120" height="148" viewBox="0 0 120 148"><g enable-background="new"><defs><path id="a" d="M0 0h120v148H0z"/></defs><clipPath id="b"><use xlink:href="#a" overflow="visible"/></clipPath><g clip-path="url(#b)"><defs><path id="c" d="M-640-131H760v4653H-640z"/></defs><clipPath id="d"><use xlink:href="#c" overflow="visible"/></clipPath><g clip-path="url(#d)"><defs><path id="e" d="M82.7 34.7l-7.2 7.2 8.3 8.3L91 43l-8.3-8.3zm-9.1-9.1L48.9 1l-7.2 7.2 24.6 24.6 7.3-7.2zm-33.8 0l-8.4-8.4-7.2 7.2 8.4 8.4 7.2-7.2zm9.1 9.1l-7.2 7.2 24.6 24.6 7.2-7.2-24.6-24.6zm.6-16.8L24.8 42.5l7.2 7.2L56.7 25l-7.2-7.1zm16.3-2l8.7-8.7L67.3 0l-8.7 8.7 7.2 7.2zm0 33.8L90.4 25l-7.2-7.2-24.6 24.7 7.2 7.2zm-16.3 1.9L41 60.1l7.2 7.2 8.5-8.5-7.2-7.2z"/></defs><clipPath id="f"><use xlink:href="#e" overflow="visible"/></clipPath><g clip-path="url(#f)"><defs><path id="g" d="M0 0h120v148H0z"/></defs><clipPath id="h"><use xlink:href="#g" overflow="visible"/></clipPath><path clip-path="url(#h)" fill="#fff" d="M19.2-5H96v77.3H19.2z"/></g></g></g><g clip-path="url(#b)"><defs><path id="i" d="M-640-131H760v4653H-640z"/></defs><clipPath id="j"><use xlink:href="#i" overflow="visible"/></clipPath><g clip-path="url(#j)"><defs><path id="k" d="M83 132.6h3.2v5.4h6.1v-5.4h3.2V147h-3.2v-6.2h-6.1v6.2H83v-14.4zm-4.5 3.8c-.3-.4-.7-.7-1.1-.9s-1-.3-1.6-.3c-.6 0-1.1.1-1.7.3s-.9.6-1.3 1-.7.9-.9 1.5c-.2.6-.3 1.2-.3 1.8 0 .7.1 1.3.3 1.9.2.6.5 1 .9 1.5.4.4.8.7 1.3 1s1 .3 1.6.3c.6 0 1.2-.1 1.7-.4.5-.3.9-.6 1.2-1.1l2.6 2c-.6.9-1.4 1.5-2.3 1.9-.9.4-1.9.6-2.9.6-1.1 0-2.2-.2-3.1-.5-.9-.4-1.8-.9-2.5-1.5-.7-.7-1.2-1.5-1.6-2.4-.4-.9-.6-2-.6-3.1s.2-2.2.6-3.1c.4-.9.9-1.7 1.6-2.4.7-.7 1.5-1.2 2.5-1.5.9-.4 2-.5 3.1-.5.4 0 .8 0 1.3.1.4.1.9.2 1.3.4l1.2.6c.4.3.7.6 1.1 1l-2.4 1.8zm-18.3-1h-4.1v-2.8h11.4v2.8h-4.1V147h-3.2v-11.6zm-10 1.4l-1.7 4.5H52l-1.8-4.5zm-1.2-4.2h2.6l6.3 14.4h-3.6l-1.2-3h-5.6l-1.2 3h-3.5l6.2-14.4zm-26 0h3.4l2.3 9.2 3-9.2h2.9l3 9.5 2.4-9.5h3.2l-4 14.4h-2.8l-3.2-9.9L30 147h-2.7L23 132.6zm94.4-18.5c-.3-.3-.6-.6-1-.7-.4-.2-.9-.2-1.2-.2-.2 0-.5 0-.7.1s-.5.1-.7.3c-.2.1-.4.3-.5.5s-.2.4-.2.7c0 .4.2.8.5 1 .3.2.7.4 1.2.6.5.2 1 .3 1.6.5.6.2 1.1.4 1.6.7.5.3.9.7 1.2 1.2.3.5.5 1.2.5 2s-.1 1.5-.4 2.1c-.3.6-.7 1.1-1.2 1.5-.5.4-1.1.7-1.8.9s-1.4.3-2.1.3c-.9 0-1.8-.1-2.6-.4-.8-.3-1.5-.7-2.2-1.4l2.3-2.5c.3.4.7.8 1.2 1 .5.2 1 .4 1.5.4.3 0 .5 0 .8-.1.3-.1.5-.2.7-.3.2-.1.4-.3.5-.5.1-.2.2-.4.2-.7 0-.4-.2-.8-.5-1-.3-.3-.7-.5-1.2-.6-.5-.2-1-.4-1.6-.5-.6-.2-1.1-.4-1.6-.7-.5-.3-.9-.7-1.2-1.2-.3-.5-.5-1.1-.5-1.9 0-.8.2-1.4.5-2 .3-.6.7-1.1 1.2-1.5.5-.4 1.1-.7 1.8-.9.7-.2 1.3-.3 2-.3.8 0 1.6.1 2.4.3.8.2 1.4.6 2 1.2l-2.5 2.1zm-19.8-3.5h9.8v2.9h-6.6v2.7h6.2v2.9h-6.2v2.9h7v2.9H97.6v-14.3zm-4.6 3.8c-.3-.4-.7-.7-1.1-.9-.5-.2-1-.3-1.6-.3-.6 0-1.1.1-1.7.3-.5.2-.9.6-1.3 1s-.7.9-.9 1.5c-.2.6-.3 1.2-.3 1.8 0 .7.1 1.3.3 1.9.2.6.5 1 .9 1.5s.8.7 1.3 1c.5.2 1 .3 1.6.3.6 0 1.2-.1 1.7-.4.5-.3.9-.6 1.2-1.1l2.6 2c-.6.9-1.4 1.5-2.3 1.9-.9.4-1.9.6-2.9.6-1.1 0-2.2-.2-3.1-.5-.9-.4-1.8-.9-2.5-1.5-.7-.7-1.2-1.5-1.6-2.4-.4-.9-.6-2-.6-3.1s.2-2.2.6-3.1c.4-.9.9-1.7 1.6-2.4.7-.7 1.5-1.2 2.5-1.5.9-.4 2-.5 3.1-.5.4 0 .8 0 1.3.1.4.1.9.2 1.3.4l1.2.6c.4.3.7.6 1.1 1l-2.4 1.8zm-19.4 2.2h2.8c.3 0 .6-.1.9-.2.3-.1.5-.3.6-.5.2-.2.3-.5.3-.9s-.1-.7-.2-.9c-.1-.2-.3-.4-.6-.5-.2-.1-.5-.2-.8-.2-.3 0-.6-.1-.9-.1h-2.1v3.3zm-3.1-6H76c.7 0 1.4.1 2.1.2.7.1 1.2.4 1.7.7.5.3.9.8 1.2 1.3.3.6.4 1.3.4 2.1 0 1-.3 1.9-.8 2.6-.5.7-1.3 1.2-2.3 1.3L82 125h-3.8l-3-5.7h-1.6v5.7h-3.2v-14.4zm-3 8.9c0 .9-.1 1.6-.4 2.4-.3.7-.6 1.3-1.1 1.9-.5.5-1.1.9-1.9 1.2-.8.3-1.6.4-2.6.4s-1.9-.1-2.6-.4-1.4-.7-1.9-1.2-.9-1.1-1.1-1.9c-.3-.7-.4-1.5-.4-2.4v-8.8h3.2v8.7c0 .4.1.9.2 1.2.1.4.3.7.6 1 .3.3.6.5.9.6.4.2.7.2 1.2.2.4 0 .8-.1 1.2-.2.4-.2.7-.4.9-.6.3-.3.5-.6.6-1 .1-.4.2-.8.2-1.2v-8.7h3.2v8.8zm-26.4-1.7c0 .7.1 1.3.3 1.9.2.6.5 1 .9 1.5.4.4.9.7 1.4 1 .5.2 1.2.3 1.8.3.7 0 1.3-.1 1.8-.3.5-.2 1-.6 1.4-1 .4-.4.7-.9.9-1.5s.3-1.2.3-1.9-.1-1.3-.3-1.8-.5-1.1-.9-1.5c-.4-.4-.9-.7-1.4-1-.5-.2-1.2-.3-1.8-.3-.7 0-1.3.1-1.8.3-.5.2-1 .6-1.4 1-.4.4-.7.9-.9 1.5-.2.5-.3 1.2-.3 1.8zm-3.3 0c0-1.1.2-2.2.6-3.1.4-.9.9-1.7 1.6-2.4.7-.7 1.5-1.2 2.5-1.5.9-.4 2-.5 3.1-.5s2.2.2 3.1.5c.9.4 1.8.9 2.5 1.5.7.7 1.2 1.5 1.6 2.4.4.9.6 2 .6 3.1s-.2 2.2-.6 3.1c-.4.9-.9 1.7-1.6 2.4-.7.7-1.5 1.2-2.5 1.5-.9.4-2 .5-3.1.5s-2.2-.2-3.1-.5c-.9-.4-1.8-.9-2.5-1.5-.7-.7-1.2-1.5-1.6-2.4-.4-.9-.6-1.9-.6-3.1zm-3.8-3.7c-.3-.3-.6-.6-1-.7-.4-.2-.9-.2-1.2-.2-.2 0-.5 0-.7.1-.2.1-.5.1-.7.3-.2.1-.4.3-.5.5-.1.2-.2.4-.2.7 0 .4.2.8.5 1 .3.2.7.4 1.2.6s1 .3 1.6.5c.6.2 1.1.4 1.6.7s.9.7 1.2 1.2c.3.5.5 1.2.5 2s-.1 1.5-.4 2.1c-.3.6-.7 1.1-1.2 1.5-.5.4-1.1.7-1.8.9-.7.2-1.4.3-2.1.3-.9 0-1.8-.1-2.6-.4-.8-.3-1.5-.7-2.2-1.4l2.3-2.5c.3.4.7.8 1.2 1 .5.2 1 .4 1.5.4.3 0 .5 0 .8-.1.3-.1.5-.2.7-.3.2-.1.4-.3.5-.5.1-.2.2-.4.2-.7 0-.4-.2-.8-.5-1-.3-.3-.7-.5-1.2-.6-.5-.2-1-.4-1.6-.5-.6-.2-1.1-.4-1.6-.7-.5-.3-.9-.7-1.2-1.2-.3-.5-.5-1.1-.5-1.9 0-.8.2-1.4.5-2 .3-.6.7-1.1 1.2-1.5.5-.4 1.1-.7 1.8-.9.7-.2 1.3-.3 2-.3.8 0 1.6.1 2.4.3.8.2 1.4.6 2 1.2l-2.5 2.1zm-19.8-3.5H24v2.9h-6.6v2.7h6.2v2.9h-6.2v2.9h7v2.9H14.2v-14.3zm-10.1 6h2.8c.3 0 .6-.1.9-.2.3-.1.5-.3.6-.5.2-.2.3-.5.3-.9s-.1-.7-.2-.9-.3-.4-.6-.5c-.2-.1-.5-.2-.8-.2-.3 0-.6-.1-.9-.1H4.1v3.3zm-3.1-6h5.6c.7 0 1.4.1 2.1.2.7.1 1.2.4 1.7.7.5.3.9.8 1.2 1.3.3.6.4 1.3.4 2.1 0 1-.3 1.9-.8 2.6-.5.7-1.3 1.2-2.3 1.3l3.7 6.1H8.7l-3-5.7H4.1v5.7H1v-14.3zm86.5-10.5h1.6c.7 0 1.4-.1 2-.2.6-.1 1.2-.4 1.6-.7.5-.3.8-.8 1.1-1.4.3-.6.4-1.2.4-2.1 0-.7-.1-1.3-.4-1.8-.3-.5-.6-1-1.1-1.3-.4-.3-1-.6-1.6-.8-.6-.2-1.2-.3-1.9-.3h-1.9v8.6zm-3.1-11.5h4.7c1.1 0 2.2.1 3.3.4 1 .3 1.9.7 2.7 1.2.8.6 1.4 1.3 1.8 2.2.5.9.7 2 .7 3.3 0 1.2-.2 2.2-.7 3.1s-1 1.6-1.8 2.2c-.7.6-1.6 1.1-2.6 1.4-1 .3-2 .5-3.1.5h-5.2V88.6zm-10.8 0h3.2V100h5.9v2.9h-9V88.6zm-10.1 6h2.8c.3 0 .6-.1.9-.2.3-.1.5-.3.6-.5.2-.2.3-.5.3-.9s-.1-.7-.2-.9-.3-.4-.6-.5c-.2-.1-.5-.2-.8-.2-.3 0-.6-.1-.9-.1h-2.1v3.3zm-3.2-6h5.6c.7 0 1.4.1 2.1.2.7.1 1.2.4 1.7.7.5.3.9.8 1.2 1.3.3.6.4 1.3.4 2.1 0 1-.3 1.9-.8 2.6-.5.7-1.3 1.2-2.3 1.3l3.7 6.1h-3.8l-3-5.7h-1.6v5.7h-3.2V88.6zM46 95.8c0 .7.1 1.3.3 1.9s.5 1 .9 1.5c.4.4.9.7 1.4 1 .5.2 1.2.3 1.8.3.7 0 1.3-.1 1.8-.3.5-.2 1-.6 1.4-1 .4-.4.7-.9.9-1.5s.3-1.2.3-1.9-.1-1.3-.3-1.8-.5-1.1-.9-1.5c-.4-.4-.9-.7-1.4-1-.5-.2-1.2-.3-1.8-.3-.7 0-1.3.1-1.8.3-.5.2-1 .6-1.4 1-.4.4-.7.9-.9 1.5s-.3 1.2-.3 1.8zm-3.3 0c0-1.1.2-2.2.6-3.1.4-.9.9-1.7 1.6-2.4.7-.7 1.5-1.2 2.5-1.5.9-.4 2-.5 3.1-.5s2.2.2 3.1.5c.9.4 1.8.9 2.5 1.5.7.7 1.2 1.5 1.6 2.4.4.9.6 2 .6 3.1s-.3 2.2-.7 3.1c-.4.9-.9 1.7-1.6 2.4-.7.7-1.5 1.2-2.5 1.5-.9.4-2 .5-3.1.5s-2.2-.2-3.1-.5c-.9-.4-1.8-.9-2.5-1.5-.7-.7-1.2-1.5-1.6-2.4-.3-.9-.5-1.9-.5-3.1zm-21.1-7.2H25l2.3 9.2 3-9.2h2.9l3 9.5 2.4-9.5H42L37.8 103H35l-3.2-9.9-3.2 9.9h-2.7l-4.3-14.4z"/></defs><clipPath id="l"><use xlink:href="#k" overflow="visible"/></clipPath><g clip-path="url(#l)"><defs><path id="m" d="M0 0h120v148H0z"/></defs><clipPath id="n"><use xlink:href="#m" overflow="visible"/></clipPath><path clip-path="url(#n)" fill="#fff" d="M-4 83.3h128.6v69.1H-4z"/></g></g></g></g></svg>