<svg width="29" height="29" xmlns="http://www.w3.org/2000/svg"><path d="M14.25 28.4c7.732 0 14-6.268 14-14s-6.268-14-14-14-14 6.268-14 14 6.268 14 14 14zm605.55 1339.53c.208-.184.436-.358.684-.523.247-.165.515-.31.802-.43.288-.124.6-.22.936-.29.336-.07.7-.106 1.09-.106.533 0 1.018.075 1.455.22.437.148.812.358 1.123.63.312.272.554.6.725.986.17.385.257.816.257 1.293 0 .464-.067.866-.202 1.205-.134.34-.304.634-.51.885-.204.25-.425.468-.664.65-.238.185-.465.357-.68.52-.213.16-.398.32-.553.476-.156.156-.25.332-.28.528l-.21 1.34h-1.55l-.157-1.496c-.006-.03-.01-.057-.01-.078v-.078c0-.27.068-.503.202-.702.135-.2.303-.385.505-.56.202-.174.42-.343.65-.508.233-.165.45-.344.652-.537.202-.192.37-.41.505-.656.134-.245.202-.533.202-.863 0-.22-.042-.417-.124-.59-.083-.176-.197-.325-.344-.45-.147-.126-.323-.222-.528-.29-.204-.067-.426-.1-.665-.1-.347 0-.642.038-.884.114-.24.078-.446.163-.614.258-.168.095-.31.18-.427.257-.116.076-.22.114-.31.114-.222 0-.38-.092-.478-.276l-.597-.945zm1.734 10.813c0-.19.035-.37.105-.54.07-.172.168-.32.293-.44.125-.124.274-.222.445-.295.17-.073.354-.11.55-.11.19 0 .37.037.54.11.172.073.32.17.44.294.124.122.222.27.295.44.073.17.11.35.11.54 0 .197-.037.38-.11.547-.073.167-.17.312-.294.434-.123.123-.27.22-.44.29-.172.07-.352.105-.542.105-.196 0-.38-.036-.55-.107-.17-.07-.32-.166-.445-.29-.125-.12-.223-.266-.294-.434-.07-.17-.106-.35-.106-.547z" fill="#65B60C"/></svg>