<svg width="175" height="156" viewBox="0 0 175 156" xmlns="http://www.w3.org/2000/svg"><title>icon developers</title><desc>Created with Sketch.</desc><g fill="none" fill-rule="evenodd"><path d="M130.142 115H45.858c-2.13 0-3.858-1.727-3.858-3.858V43.858C42 41.728 43.727 40 45.858 40h84.284c2.13 0 3.858 1.727 3.858 3.858v67.284c0 2.13-1.727 3.858-3.858 3.858z" fill="#fff"/><path d="M130.142 115H45.858c-2.13 0-3.858-1.727-3.858-3.858V43.858C42 41.728 43.727 40 45.858 40h84.284c2.13 0 3.858 1.727 3.858 3.858v67.284c0 2.13-1.727 3.858-3.858 3.858z" stroke="#000" stroke-width="2"/><path d="M48 46h80v56H48V46z" fill="#fff"/><path d="M48 46h80v56H48V46z" stroke="#000" stroke-width="2"/><path d="M140.723 115H35.277c-.705 0-1.277-.572-1.277-1.277v-4.446c0-.705.572-1.277 1.277-1.277h105.446c.705 0 1.277.572 1.277 1.277v4.446c0 .705-.572 1.277-1.277 1.277z" fill="#fff"/><path d="M140.723 115H35.277c-.705 0-1.277-.572-1.277-1.277v-4.446c0-.705.572-1.277 1.277-1.277h105.446c.705 0 1.277.572 1.277 1.277v4.446c0 .705-.572 1.277-1.277 1.277z" stroke="#000" stroke-width="2"/><path d="M84 66c0 .552-.448 1-1 1s-1-.448-1-1 .448-1 1-1 1 .448 1 1zM21-14c0 .552-.448 1-1 1s-1-.448-1-1 .448-1 1-1 1 .448 1 1zm5 0c0 .552-.448 1-1 1s-1-.448-1-1 .448-1 1-1 1 .448 1 1zm-17-5h41v35H43V21z" stroke="#000" stroke-width="2"/><path d="M64 52h41v35H64V52z" fill="#fff"/><path d="M64 52h41v35H64V52z" stroke="#000" stroke-width="2"/><path d="M71 57c0 .552-.448 1-1 1s-1-.448-1-1 .448-1 1-1 1 .448 1 1zM8-23c0 .552-.448 1-1 1s-1-.448-1-1 .448-1 1-1 1 .448 1 1zm5 0c0 .552-.448 1-1 1s-1-.448-1-1 .448-1 1-1 1 .448 1 1z" stroke="#000" stroke-width="2"/></g></svg>